<svg xmlns="http://www.w3.org/2000/svg" width="75" height="75" fill="none"><path fill="#fff" d="M37.5 67.5a30 30 0 1 0 0-60 30 30 0 0 0 0 60Zm0-56.25c2.464 0 5.276 2.213 7.583 7.155.813 1.747 1.522 3.758 2.096 5.97H27.82c.574-2.212 1.283-4.223 2.1-5.97 2.299-4.943 5.111-7.155 7.579-7.155Zm-10.98 5.569a39.386 39.386 0 0 0-2.561 7.556H14.76a26.333 26.333 0 0 1 14.167-11.693c-.903 1.238-1.71 2.64-2.407 4.137Zm-3.3 11.306a59.888 59.888 0 0 0-.72 9.375c0 3.263.251 6.42.724 9.375H12.975A26.19 26.19 0 0 1 11.25 37.5c0-3.3.611-6.465 1.725-9.375h10.249-.004Zm.739 22.5c.66 2.786 1.526 5.333 2.561 7.556.698 1.497 1.504 2.899 2.407 4.137A26.333 26.333 0 0 1 14.76 50.625h9.202-.003Zm3.862 0H47.18a34.689 34.689 0 0 1-2.1 5.97c-2.299 4.943-5.111 7.155-7.579 7.155-2.464 0-5.276-2.212-7.582-7.155a34.702 34.702 0 0 1-2.093-5.97h-.004Zm20.156-3.75H27.023a55.764 55.764 0 0 1-.773-9.375c0-3.311.274-6.469.773-9.375h20.954c.5 2.906.773 6.064.773 9.375s-.274 6.469-.773 9.375Zm3.064 3.75h9.199a26.333 26.333 0 0 1-14.168 11.693c.904-1.238 1.71-2.64 2.408-4.137 1.035-2.223 1.901-4.77 2.561-7.556Zm10.988-3.75H51.776c.473-2.955.724-6.112.724-9.375s-.251-6.42-.724-9.375h10.249A26.19 26.19 0 0 1 63.75 37.5c0 3.3-.611 6.465-1.725 9.375h.004ZM46.072 12.682A26.328 26.328 0 0 1 60.24 24.375h-9.203a39.389 39.389 0 0 0-2.56-7.556 24.873 24.873 0 0 0-2.408-4.136h.003Z"/></svg>